<?xml version="1.0" encoding="UTF-8"?>
<svg width="16px" height="16px" viewBox="0 0 16 16" version="1.1" xmlns="http://www.w3.org/2000/svg" xmlns:xlink="http://www.w3.org/1999/xlink">
    <title>Icons/all</title>
    <g id="Page-1" stroke="none" stroke-width="1" fill="none" fill-rule="evenodd">
        <g id="iPhone-14-Pro" transform="translate(-156, -64)" fill="#FFFFFF" fill-rule="nonzero">
            <g id="Banner" transform="translate(0, 53)">
                <g id="Total-Word-Counts" transform="translate(156, 8.0016)">
                    <g id="Icons/all" transform="translate(0, 3.0011)">
                        <rect id="Rectangle" opacity="0" x="0" y="0" width="16" height="15.9977211"></rect>
                        <path d="M7.07691026,1.23062548 C7.7141623,1.23062548 8.23075715,1.74714708 8.23075715,2.38430877 L8.23075715,6.99902616 L3.61538535,6.99902616 C2.97813331,6.99902616 2.46153846,6.48250455 2.46153846,5.84534287 L2.46153846,2.38430877 C2.46153846,1.74714708 2.97813331,1.23062548 3.61538535,1.23062548 L7.07691026,1.23062548 L7.07691026,1.23062548 Z M7.07691026,2.38430877 L3.61538535,2.38430877 L3.61538535,5.84534287 L7.07691026,5.84534287 L7.07691026,2.38430877 Z M8.23077293,7.76813258 L8.23077293,12.38285 C8.23077293,13.0200117 7.71417808,13.5365333 7.07692603,13.5365333 L3.61538535,13.5365333 C2.97813331,13.5365333 2.46153846,13.0200117 2.46153846,12.38285 L2.46153846,8.92183164 C2.46153846,8.28466995 2.97813331,7.76813258 3.61538535,7.76813258 L8.23077293,7.76813258 L8.23077293,7.76813258 Z M3.61538535,8.92181587 L3.61538535,12.38285 L7.07692603,12.38285 L7.07692603,8.92181587 L3.61538535,8.92181587 L3.61538535,8.92181587 Z M11.8846135,1.23059393 C13.4777436,1.23059393 14.7692308,2.52189794 14.7692308,4.11480216 C14.7692308,5.70770638 13.4777436,6.99901038 11.8846135,6.99901038 C10.2914878,6.99901038 9.00000419,5.70770991 9.00000419,4.11481005 C9.00000419,2.52191018 10.2914878,1.23059393 11.8846135,1.23059393 L11.8846135,1.23059393 Z M11.8846135,2.384293 C10.9287398,2.384293 10.1538511,3.15907187 10.1538511,4.11481005 C10.1538511,5.07054822 10.9287398,5.84532709 11.8846135,5.84532709 C12.8404872,5.84532709 13.615376,5.07054822 13.615376,4.11481005 C13.615376,3.15907187 12.8404872,2.384293 11.8846135,2.384293 Z M13.6153602,7.76813258 C14.2526123,7.76813258 14.7692071,8.28465418 14.7692071,8.92181587 L14.7692071,12.38285 C14.7692071,13.0200117 14.2526123,13.5365333 13.6153602,13.5365333 L10.1538353,13.5365333 C9.51658327,13.5365333 8.99998842,13.0200117 8.99998842,12.38285 L8.99998842,7.76813258 L13.6153602,7.76813258 L13.6153602,7.76813258 Z M10.1538353,12.3828657 L13.6153602,12.3828657 L13.6153602,8.92183164 L10.1538353,8.92183164 L10.1538353,12.3828657 Z" id="Shape"></path>
                    </g>
                </g>
            </g>
        </g>
    </g>
</svg>