<?xml version="1.0" encoding="UTF-8"?>
<svg width="16px" height="16px" viewBox="0 0 16 16" version="1.1" xmlns="http://www.w3.org/2000/svg" xmlns:xlink="http://www.w3.org/1999/xlink">
    <title>Icons/month</title>
    <g id="Page-1" stroke="none" stroke-width="1" fill="none" fill-rule="evenodd">
        <g id="iPhone-14-Pro" transform="translate(-253, -133)" fill="#FFFFFF" fill-rule="nonzero">
            <g id="Banner" transform="translate(0, 53)">
                <g id="Word-Counts-Month" transform="translate(253, 77)">
                    <g id="Icons/month" transform="translate(0, 3)">
                        <rect id="Rectangle" opacity="0" x="0" y="0" width="16" height="16"></rect>
                        <path d="M13.75,2.625 L11.53125,2.625 L11.53125,1.75 C11.53125,1.68125 11.475,1.625 11.40625,1.625 L10.65625,1.625 C10.5875,1.625 10.53125,1.68125 10.53125,1.75 L10.53125,2.625 L5.46875,2.625 L5.46875,1.75 C5.46875,1.68125 5.4125,1.625 5.34375,1.625 L4.59375,1.625 C4.525,1.625 4.46875,1.68125 4.46875,1.75 L4.46875,2.625 L2.25,2.625 C1.9734375,2.625 1.75,2.8484375 1.75,3.125 L1.75,13.875 C1.75,14.1515625 1.9734375,14.375 2.25,14.375 L13.75,14.375 C14.0265625,14.375 14.25,14.1515625 14.25,13.875 L14.25,3.125 C14.25,2.8484375 14.0265625,2.625 13.75,2.625 Z M13.25,13.25 C13.25,13.31875 13.19375,13.375 13.125,13.375 L2.875,13.375 C2.80625,13.375 2.75,13.31875 2.75,13.25 L2.75,3.75 C2.75,3.68125 2.80625,3.625 2.875,3.625 L4.46875,3.625 L4.46875,4.375 C4.46875,4.44375 4.525,4.5 4.59375,4.5 L5.34375,4.5 C5.4125,4.5 5.46875,4.44375 5.46875,4.375 L5.46875,3.625 L10.53125,3.625 L10.53125,4.375 C10.53125,4.44375 10.5875,4.5 10.65625,4.5 L11.40625,4.5 C11.475,4.5 11.53125,4.44375 11.53125,4.375 L11.53125,3.625 L13.25,3.625 L13.25,13.25 Z M7.36875,8.9125 C7.25625,8.8328125 7.146875,8.7609375 7.040625,8.6953125 L7.240625,8.546875 C7.3390625,8.4796875 7.428125,8.365625 7.5046875,8.203125 C7.5828125,8.040625 7.6234375,7.8609375 7.628125,7.6671875 C7.628125,7.5296875 7.60625,7.3796875 7.5640625,7.221875 C7.5203125,7.0625 7.4375,6.9078125 7.3140625,6.7578125 C7.190625,6.6078125 7.009375,6.484375 6.7703125,6.3875 C6.53125,6.290625 6.2796875,6.2453125 6.015625,6.25 C5.7046875,6.2578125 5.4375,6.3265625 5.2140625,6.4578125 C4.990625,6.5890625 4.8203125,6.759375 4.703125,6.9703125 C4.5859375,7.18125 4.515625,7.359375 4.49375,7.5046875 C4.471875,7.65 4.45625,7.796875 4.45,7.9453125 L5.415625,7.9484375 L5.434375,7.7375 C5.4390625,7.6265625 5.475,7.525 5.54375,7.434375 C5.6109375,7.34375 5.690625,7.2765625 5.7828125,7.234375 C5.8734375,7.1921875 5.9734375,7.171875 6.078125,7.171875 C6.175,7.175 6.271875,7.2 6.3703125,7.2484375 C6.46875,7.296875 6.540625,7.3625 6.584375,7.446875 C6.615625,7.515625 6.6296875,7.6109375 6.625,7.7296875 C6.6203125,7.85 6.5765625,7.9640625 6.4953125,8.0734375 C6.4140625,8.1828125 6.325,8.2515625 6.2265625,8.28125 C6.1296875,8.309375 6.040625,8.3234375 5.9609375,8.321875 C5.88125,8.3203125 5.7953125,8.31875 5.703125,8.315625 L5.703125,9.2078125 L6.03125,9.2078125 C6.1328125,9.203125 6.25625,9.2421875 6.4046875,9.325 C6.553125,9.4078125 6.6578125,9.5140625 6.71875,9.6453125 C6.76875,9.759375 6.7828125,9.8921875 6.7625,10.0453125 C6.7421875,10.1984375 6.6953125,10.3140625 6.6203125,10.390625 C6.5453125,10.46875 6.45625,10.525 6.35625,10.5609375 C6.2546875,10.596875 6.15,10.6125 6.0421875,10.6078125 C5.8546875,10.603125 5.7140625,10.5578125 5.6203125,10.475 C5.5265625,10.390625 5.4640625,10.29375 5.43125,10.18125 C5.3984375,10.06875 5.3796875,9.9765625 5.371875,9.903125 C5.3640625,9.8296875 5.3578125,9.7484375 5.353125,9.6578125 L4.384375,9.6578125 L4.40625,10.0171875 C4.4140625,10.2015625 4.45625,10.4 4.5359375,10.6109375 C4.615625,10.821875 4.7328125,11.0046875 4.890625,11.1578125 C5.0484375,11.3125 5.25,11.425 5.4953125,11.496875 C5.740625,11.56875 6.0140625,11.584375 6.315625,11.5453125 C6.571875,11.515625 6.809375,11.44375 7.0265625,11.33125 C7.24375,11.2171875 7.421875,11.053125 7.5609375,10.8359375 C7.7,10.61875 7.778125,10.34375 7.7921875,10.0109375 C7.8015625,9.7328125 7.7625,9.5 7.671875,9.315625 C7.5828125,9.125 7.48125,8.9921875 7.36875,8.9125 L7.36875,8.9125 Z M11.1546875,6.7515625 C10.9953125,6.584375 10.80625,6.4625 10.5890625,6.3828125 C10.3703125,6.303125 10.15,6.2625 9.925,6.2609375 C9.66875,6.2609375 9.428125,6.30625 9.2046875,6.3953125 C8.98125,6.4859375 8.7828125,6.6265625 8.6078125,6.8203125 C8.4328125,7.0140625 8.3171875,7.234375 8.2625,7.48125 C8.20625,7.728125 8.1765625,7.9703125 8.1703125,8.2109375 C8.1640625,8.45 8.1625,8.709375 8.1640625,8.9875 C8.1671875,9.21875 8.1734375,9.4359375 8.184375,9.634375 C8.1953125,9.834375 8.2140625,10.0125 8.2421875,10.1703125 C8.26875,10.328125 8.31875,10.490625 8.390625,10.659375 C8.4625,10.8265625 8.565625,10.975 8.7,11.1015625 C8.834375,11.228125 9.0046875,11.328125 9.2109375,11.4015625 C9.4171875,11.475 9.6625,11.5078125 9.9484375,11.503125 C10.2515625,11.5 10.525,11.44375 10.765625,11.3328125 C11.0078125,11.221875 11.184375,11.065625 11.296875,10.8625 C11.409375,10.6609375 11.4828125,10.4734375 11.5171875,10.303125 C11.5515625,10.1328125 11.5765625,9.91875 11.590625,9.6609375 C11.6046875,9.403125 11.6140625,9.121875 11.6171875,8.81875 C11.6171875,8.5765625 11.6125,8.31875 11.603125,8.0421875 C11.59375,7.765625 11.55625,7.5234375 11.4921875,7.3125 C11.425,7.10625 11.3140625,6.91875 11.1546875,6.7515625 Z M10.6453125,8.8484375 C10.6421875,9.2265625 10.6328125,9.53125 10.6140625,9.7625 C10.5953125,9.99375 10.5515625,10.165625 10.4828125,10.275 C10.4140625,10.384375 10.334375,10.4640625 10.24375,10.5125 C10.153125,10.5609375 10.0296875,10.5828125 9.871875,10.5765625 C9.675,10.571875 9.521875,10.528125 9.4125,10.446875 C9.3046875,10.365625 9.228125,10.2390625 9.1875,10.0671875 C9.1453125,9.8953125 9.1203125,9.684375 9.1140625,9.4328125 L9.0921875,8.8265625 C9.0890625,8.7296875 9.0921875,8.6015625 9.0984375,8.440625 C9.1046875,8.2796875 9.1171875,8.1296875 9.1359375,7.990625 C9.1546875,7.853125 9.1859375,7.7328125 9.228125,7.6328125 C9.271875,7.5328125 9.3296875,7.4484375 9.4015625,7.3796875 C9.475,7.3109375 9.559375,7.2640625 9.6546875,7.2390625 C9.7515625,7.2140625 9.840625,7.2015625 9.925,7.2015625 C10.021875,7.2046875 10.1140625,7.2234375 10.2046875,7.259375 C10.2953125,7.2953125 10.36875,7.35 10.425,7.4265625 C10.48125,7.5015625 10.521875,7.584375 10.5453125,7.671875 C10.56875,7.7609375 10.5875,7.8484375 10.603125,7.934375 C10.6328125,8.165625 10.6484375,8.4703125 10.6453125,8.8484375 L10.6453125,8.8484375 Z" id="Shape"></path>
                    </g>
                </g>
            </g>
        </g>
    </g>
</svg>