<?xml version="1.0" encoding="UTF-8"?>
<svg width="14px" height="15px" viewBox="0 0 14 15" version="1.1" xmlns="http://www.w3.org/2000/svg" xmlns:xlink="http://www.w3.org/1999/xlink">
    <title>Icons/today</title>
    <g id="Page-1" stroke="none" stroke-width="1" fill="none" fill-rule="evenodd">
        <g id="iPhone-14-Pro" transform="translate(-155, -65)" fill="#FFFFFF" fill-rule="nonzero">
            <g id="Banner" transform="translate(0, 53)">
                <g id="Total-Word-Counts" transform="translate(155, 8.0016)">
                    <g id="Icons/today" transform="translate(0, 4)">
                        <path d="M9.3546875,7.98839894 L8.2203125,7.80612457 L7.7296875,6.69544335 L7.725,6.68522236 C7.64375,6.51146548 7.51875,6.37688908 7.3609375,6.29341764 C7.1671875,6.18950421 6.95,6.17246922 6.7453125,6.24571967 C6.540625,6.32067362 6.375,6.47739551 6.278125,6.68862936 L5.778125,7.79590358 L4.625,7.98158495 L4.609375,7.98499194 C4.4421875,8.02587592 4.2953125,8.11275435 4.184375,8.23370277 L4.175,8.24562726 C3.8703125,8.60165851 3.88125,9.15699912 4.2,9.48747788 L5.003125,10.3545588 L4.8125,11.5657464 C4.7765625,11.7446138 4.803125,11.9439232 4.8890625,12.1261975 C4.9875,12.3391349 5.15625,12.4958568 5.3640625,12.5657002 C5.4421875,12.5929562 5.5234375,12.6048807 5.6046875,12.6048807 C5.73125,12.6048807 5.85625,12.5725142 5.9734375,12.5094848 L6.996875,11.9217777 L8.0046875,12.5009673 C8.14375,12.5861422 8.3140625,12.6202122 8.4953125,12.5980667 L8.5109375,12.5963632 L8.5265625,12.5929562 C8.7359375,12.5503687 8.91875,12.4260133 9.0421875,12.2403319 C9.1703125,12.0478366 9.2203125,11.8127537 9.18125,11.5776709 L8.990625,10.3528553 L9.796875,9.49088488 C9.934375,9.35630848 10.021875,9.17062711 10.04375,8.96791075 C10.0703125,8.73793841 10.015625,8.50966957 9.8875,8.3256917 C9.75625,8.14171383 9.5671875,8.02076542 9.3546875,7.98839894 L9.3546875,7.98839894 Z M8.2484375,9.80943916 L8.2453125,9.81284616 C8.146875,9.92187008 8.0890625,10.0768885 8.0890625,10.2404244 L8.0890625,10.2813083 L8.29375,11.5912989 L7.215625,10.9712253 L7.18125,10.9593008 C7.0640625,10.9167134 6.9296875,10.9167134 6.8125,10.9593008 L6.778125,10.9712253 L5.696875,11.5930024 L5.8921875,10.3409308 C5.9296875,10.1569529 5.875,9.95764355 5.7453125,9.81625315 L4.9,8.9031778 L6.065625,8.71579293 C6.2453125,8.69535094 6.359375,8.57099553 6.4,8.52670456 L6.4515625,8.4704891 L7.0046875,7.24737696 L7.509375,8.39212816 C7.5828125,8.57951302 7.7484375,8.70897893 7.9375,8.72601392 L9.090625,8.91169529 L8.2484375,9.80943916 L8.2484375,9.80943916 Z" id="Shape"></path>
                        <path d="M13.5,3.77394291 L9.2859375,3.77394291 L7.8296875,1.24935769 C7.8625,1.13863027 7.878125,1.01938535 7.8703125,0.893326442 C7.84375,0.407829284 7.478125,0.0194315576 7.03125,0.000693070802 C6.5328125,-0.0197489148 6.121875,0.414643279 6.121875,0.954652398 C6.121875,1.05345533 6.1359375,1.14714776 6.1609375,1.2357297 L4.7125,3.77394291 L0.5,3.77394291 C0.2234375,3.77394291 0,4.01754324 0,4.31906253 L0,14.4548804 C0,14.7563997 0.2234375,15 0.5,15 L13.5,15 C13.7765625,15 14,14.7563997 14,14.4548804 L14,4.31906253 C14,4.01754324 13.7765625,3.77394291 13.5,3.77394291 Z M6.95625,1.90690823 C6.9703125,1.90690823 6.984375,1.90861173 6.9984375,1.90861173 L7.0296875,1.90861173 L8.10625,3.77394291 L5.890625,3.77394291 L6.95625,1.90690823 L6.95625,1.90690823 Z M13,13.7717774 C13,13.8467313 12.94375,13.9080573 12.875,13.9080573 L1.125,13.9080573 C1.05625,13.9080573 1,13.8467313 1,13.7717774 L1,4.99875855 C1,4.9238046 1.05625,4.86247864 1.125,4.86247864 L12.875,4.86247864 C12.94375,4.86247864 13,4.9238046 13,4.99875855 L13,13.7717774 Z" id="Shape"></path>
                    </g>
                </g>
            </g>
        </g>
    </g>
</svg>