<?xml version="1.0" encoding="UTF-8"?>
<svg width="16px" height="16px" viewBox="0 0 16 16" version="1.1" xmlns="http://www.w3.org/2000/svg" xmlns:xlink="http://www.w3.org/1999/xlink">
    <title>Icons/week</title>
    <g id="Page-1" stroke="none" stroke-width="1" fill="none" fill-rule="evenodd">
        <g id="iPhone-14-Pro" transform="translate(-41, -133)" fill="#FFFFFF" fill-rule="nonzero">
            <g id="Banner" transform="translate(0, 53)">
                <g id="Word-Counts-Week" transform="translate(41, 77)">
                    <g id="Icons/week" transform="translate(0, 3)">
                        <rect id="Rectangle" opacity="0" x="0" y="0" width="16" height="16"></rect>
                        <path d="M13,14.5 L3,14.5 C2.175,14.5 1.5,13.825 1.5,13 L1.5,3.5 C1.5,2.675 2.175,2 3,2 C3.275,2 3.5,2.225 3.5,2.5 C3.5,2.775 3.275,3 3,3 C2.725,3 2.5,3.225 2.5,3.5 L2.5,13 C2.5,13.275 2.725,13.5 3,13.5 L13,13.5 C13.275,13.5 13.5,13.275 13.5,13 L13.5,3.5 C13.5,3.225 13.275,3 13,3 C12.725,3 12.5,2.775 12.5,2.5 C12.5,2.225 12.725,2 13,2 C13.825,2 14.5,2.675 14.5,3.5 L14.5,13 C14.5,13.825 13.825,14.5 13,14.5 Z" id="Path"></path>
                        <path d="M5,3.5 C4.725,3.5 4.5,3.275 4.5,3 L4.5,2 C4.5,1.725 4.725,1.5 5,1.5 C5.275,1.5 5.5,1.725 5.5,2 L5.5,3 C5.5,3.275 5.275,3.5 5,3.5 Z M9,3 L7,3 C6.725,3 6.5,2.775 6.5,2.5 C6.5,2.225 6.725,2 7,2 L9,2 C9.275,2 9.5,2.225 9.5,2.5 C9.5,2.775 9.275,3 9,3 Z M11,3.5 C10.725,3.5 10.5,3.275 10.5,3 L10.5,2 C10.5,1.725 10.725,1.5 11,1.5 C11.275,1.5 11.5,1.725 11.5,2 L11.5,3 C11.5,3.275 11.275,3.5 11,3.5 Z M8,12 C7.95,12 7.9,12 7.85,11.975 C7.6,11.9 7.45,11.6 7.525,11.35 L9.3,6 L6,6 C5.725,6 5.5,5.775 5.5,5.5 C5.5,5.225 5.725,5 6,5 L9.3,5 C9.625,5 9.925,5.15 10.1,5.425 C10.3,5.675 10.35,6.025 10.225,6.325 L8.45,11.675 C8.4,11.875 8.2,12 8,12 Z" id="Shape"></path>
                    </g>
                </g>
            </g>
        </g>
    </g>
</svg>